
<svg xmlns="http://www.w3.org/2000/svg" width="512" height="512" viewBox="0 0 512 512" version="1.1"><path d="M 116.052 98.250 C 116.081 100.588, 119.352 138.950, 123.321 183.500 L 130.537 264.500 227.769 264.755 L 325 265.010 324.925 267.255 C 324.884 268.490, 323.421 285.025, 321.675 304 L 318.500 338.499 288.500 346.682 C 272 351.183, 257.375 354.877, 256 354.892 C 254.625 354.906, 240 351.215, 223.500 346.688 L 193.500 338.458 191.321 314.979 C 190.122 302.066, 189.110 291.387, 189.071 291.250 C 188.886 290.597, 133 291.096, 133.002 291.750 C 133.017 297.385, 141.126 381.500, 141.704 382.009 C 142.142 382.395, 168.019 389.812, 199.208 398.492 L 255.916 414.273 312.708 398.484 C 343.944 389.800, 369.854 382.387, 370.287 382.011 C 370.947 381.436, 385.984 217.987, 385.996 211.250 L 386 209 284.072 209 L 182.144 209 181.558 203.750 C 180.867 197.552, 177 153.763, 177 152.132 C 177 151.310, 205.739 150.941, 284.250 150.755 L 391.500 150.500 393.675 127 C 394.871 114.075, 395.884 101.362, 395.925 98.750 L 396 94 256 94 L 116 94 116.052 98.250" stroke="none" fill="#fcfbfa" fill-rule="evenodd"/><path d="M 31.977 1.750 C 31.941 4.597, 72.281 460.466, 72.606 460.868 C 73.084 461.461, 254.351 511.996, 256 511.996 C 257.675 511.996, 438.915 461.469, 439.369 460.876 C 439.671 460.482, 480.118 3.421, 480.043 1.250 C 480.009 0.254, 434.510 0, 256 0 C 43.342 0, 31.999 0.089, 31.977 1.750 M 116.052 98.250 C 116.081 100.588, 119.352 138.950, 123.321 183.500 L 130.537 264.500 227.769 264.755 L 325 265.010 324.925 267.255 C 324.884 268.490, 323.421 285.025, 321.675 304 L 318.500 338.499 288.500 346.682 C 272 351.183, 257.375 354.877, 256 354.892 C 254.625 354.906, 240 351.215, 223.500 346.688 L 193.500 338.458 191.321 314.979 C 190.122 302.066, 189.110 291.387, 189.071 291.250 C 188.886 290.597, 133 291.096, 133.002 291.750 C 133.017 297.385, 141.126 381.500, 141.704 382.009 C 142.142 382.395, 168.019 389.812, 199.208 398.492 L 255.916 414.273 312.708 398.484 C 343.944 389.800, 369.854 382.387, 370.287 382.011 C 370.947 381.436, 385.984 217.987, 385.996 211.250 L 386 209 284.072 209 L 182.144 209 181.558 203.750 C 180.867 197.552, 177 153.763, 177 152.132 C 177 151.310, 205.739 150.941, 284.250 150.755 L 391.500 150.500 393.675 127 C 394.871 114.075, 395.884 101.362, 395.925 98.750 L 396 94 256 94 L 116 94 116.052 98.250" stroke="none" fill="#fc5424" fill-rule="evenodd"/></svg>

